<?xml version="1.0" standalone="no"?>
<!DOCTYPE svg PUBLIC "-//W3C//DTD SVG 20010904//EN"
 "http://www.w3.org/TR/2001/REC-SVG-20010904/DTD/svg10.dtd">
<svg version="1.0" xmlns="http://www.w3.org/2000/svg"
 width="1080.000000pt" height="1080.000000pt" viewBox="0 0 1080.000000 1080.000000"
 preserveAspectRatio="xMidYMid meet">

<g transform="translate(0.000000,1080.000000) scale(0.100000,-0.100000)"
fill="#000000" stroke="none">
<path d="M0 5400 l0 -5400 5400 0 5400 0 0 5400 0 5400 -5400 0 -5400 0 0
-5400z m4850 4632 c63 -17 140 -37 170 -45 117 -31 207 -60 250 -82 25 -12 72
-30 105 -40 33 -10 65 -21 70 -25 6 -3 49 -21 97 -39 69 -27 95 -43 133 -82
26 -27 52 -50 58 -51 7 0 23 -2 37 -3 14 -1 51 -11 82 -23 65 -24 209 -51 288
-53 276 -8 474 -3 665 15 186 18 241 30 390 83 130 46 168 66 222 116 l46 42
96 3 c108 4 250 -23 299 -56 15 -11 47 -32 71 -48 46 -30 98 -89 124 -140 l16
-30 -75 -83 c-204 -230 -280 -448 -301 -869 -6 -113 -5 -114 26 -177 37 -73
93 -128 160 -157 25 -11 70 -31 98 -45 78 -37 138 -13 150 59 6 38 -4 53 -71
106 -9 7 -13 18 -10 24 4 6 3 8 -3 5 -11 -7 -70 83 -94 143 -21 52 -17 235 6
280 21 41 92 132 112 143 9 5 45 1 92 -12 62 -17 107 -21 223 -21 213 0 225
-12 227 -211 1 -42 8 -116 16 -164 21 -117 91 -331 114 -347 10 -7 29 -36 42
-63 53 -115 102 -153 209 -162 88 -7 94 -15 110 -138 9 -77 9 -102 -5 -163
-27 -117 4 -169 94 -160 l41 4 0 -91 c1 -49 5 -109 9 -132 9 -44 4 -52 -18
-30 -15 15 -308 14 -475 -3 -118 -11 -266 -40 -356 -70 -30 -10 -89 -28 -130
-40 -163 -47 -208 -70 -290 -147 -42 -40 -81 -69 -85 -65 -5 4 -5 2 -2 -4 4
-6 -9 -44 -28 -83 -78 -159 -82 -185 -34 -225 55 -47 125 -24 149 49 12 36 76
91 140 118 237 103 245 105 350 117 95 11 118 10 236 -9 142 -23 269 -28 280
-10 4 7 26 8 64 4 47 -5 66 -3 103 14 25 12 48 21 51 21 3 0 -33 -57 -80 -127
-110 -164 -110 -163 -144 -300 -38 -146 -47 -229 -60 -538 -12 -267 -20 -316
-71 -416 -31 -63 -57 -130 -65 -169 -2 -14 -9 -36 -13 -50 -5 -14 -17 -58 -26
-97 -10 -40 -22 -73 -28 -73 -6 0 -8 -3 -5 -6 3 -3 -5 -33 -18 -67 -14 -34
-42 -113 -64 -175 -21 -62 -59 -149 -84 -193 -25 -44 -62 -122 -82 -172 -20
-51 -47 -112 -59 -137 -12 -25 -32 -76 -44 -115 -13 -38 -28 -77 -35 -85 -7
-8 -17 -26 -24 -40 -7 -14 -16 -32 -22 -40 -5 -8 -17 -33 -26 -55 -10 -22 -18
-42 -19 -45 -2 -3 -6 -16 -11 -30 -4 -13 -22 -52 -39 -85 -103 -195 -141 -265
-171 -311 -19 -28 -34 -56 -34 -62 0 -5 -19 -34 -43 -64 -24 -29 -58 -81 -77
-115 -18 -35 -39 -63 -46 -63 -7 0 -19 -10 -25 -23 -12 -21 -11 -21 7 -7 21
16 -20 -35 -45 -57 -8 -7 -12 -13 -8 -13 4 0 -1 -17 -12 -38 -23 -46 -88 -115
-100 -108 -5 3 -8 -2 -7 -11 0 -9 -9 -22 -21 -28 -13 -7 -21 -14 -18 -17 3 -3
-12 -25 -34 -49 -71 -79 -209 -256 -226 -290 -10 -19 -29 -49 -42 -67 -14 -18
-52 -86 -84 -150 -78 -153 -139 -251 -219 -347 -112 -134 -132 -155 -149 -153
-8 2 -16 -2 -16 -8 0 -23 -92 -87 -199 -139 -186 -91 -230 -103 -411 -115
-109 -7 -171 -7 -195 0 -19 5 -89 10 -156 10 -67 0 -146 5 -175 11 -59 11
-117 22 -222 38 -74 12 -125 35 -172 76 -16 15 -59 42 -95 60 -36 18 -81 50
-100 70 -19 20 -49 43 -67 50 -17 7 -39 27 -47 44 -9 16 -22 34 -30 38 -20 11
-117 94 -141 120 -11 13 -42 49 -70 80 -27 32 -77 82 -110 111 -165 143 -227
202 -266 255 -23 31 -46 57 -51 57 -5 0 -16 16 -25 35 -11 23 -25 36 -45 40
-33 8 -79 52 -110 108 -12 20 -26 37 -30 37 -12 0 -83 71 -96 95 -5 11 -40 56
-77 100 -37 44 -75 96 -84 115 -32 66 -56 103 -106 163 -95 116 -165 212 -197
272 -17 33 -63 103 -102 155 -90 120 -158 234 -229 380 -54 110 -161 305 -201
363 -10 15 -24 27 -30 27 -7 0 -18 11 -26 24 -7 14 -49 60 -94 104 l-82 79
-13 129 c-7 71 -17 149 -21 174 -40 203 -51 288 -60 440 -5 96 -13 208 -16
248 l-6 72 -77 -41 c-87 -47 -137 -54 -191 -25 -19 10 -55 29 -80 41 -53 27
-149 125 -208 212 -23 33 -42 65 -42 69 0 4 -11 21 -24 38 -12 17 -38 72 -56
121 -17 50 -43 119 -56 155 -14 36 -26 75 -29 87 -2 12 -11 33 -20 47 -10 14
-15 26 -11 26 3 0 -5 20 -18 44 -13 24 -31 77 -40 118 -9 40 -21 89 -26 109
-26 96 -6 266 47 417 15 42 17 106 17 562 1 554 -2 517 57 647 35 78 73 131
133 182 47 41 48 41 126 41 l78 0 34 -42 c18 -24 50 -61 71 -83 21 -22 54 -67
73 -100 20 -33 40 -67 45 -75 35 -57 89 -175 104 -225 20 -69 63 -208 106
-345 56 -177 69 -420 49 -935 -8 -218 -7 -231 11 -257 10 -15 20 -41 21 -58 5
-72 100 -105 152 -54 24 25 26 33 26 111 0 100 25 317 45 388 18 65 55 163 94
248 17 37 31 69 31 72 0 2 15 36 34 77 18 40 41 96 50 124 30 91 147 261 169
247 6 -3 7 -1 3 5 -7 12 42 82 57 82 5 0 5 -5 1 -12 -4 -7 -3 -8 5 -4 6 4 9
11 6 15 -8 14 57 94 143 176 46 43 99 100 118 127 20 26 41 45 46 41 7 -3 8
-1 4 6 -5 7 20 41 63 87 39 41 90 106 113 144 24 38 74 117 111 176 85 132
144 272 217 517 10 34 46 143 80 242 56 165 80 257 129 494 25 120 33 125 181
118 84 -3 146 -13 230 -35z m4417 -2404 c-3 -8 -6 -5 -6 6 -1 11 2 17 5 13 3
-3 4 -12 1 -19z"/>
<path d="M7760 9545 c14 -8 32 -14 40 -14 8 0 0 6 -19 14 -42 19 -54 19 -21 0z"/>
<path d="M7825 9540 c3 -5 8 -10 11 -10 2 0 4 5 4 10 0 6 -5 10 -11 10 -5 0
-7 -4 -4 -10z"/>
<path d="M7789 9483 l-34 -38 38 34 c34 33 42 41 34 41 -2 0 -19 -17 -38 -37z"/>
<path d="M5053 7949 c-7 -7 -82 -12 -204 -14 -146 -2 -218 -8 -289 -23 -52
-10 -131 -25 -175 -33 -59 -9 -86 -19 -103 -36 -13 -13 -48 -33 -78 -44 -30
-11 -61 -30 -69 -42 -22 -31 -19 -89 5 -115 42 -45 193 -66 419 -60 130 4 193
1 291 -13 264 -39 309 -50 414 -99 56 -26 119 -53 141 -60 22 -7 45 -16 51
-21 6 -5 55 -24 111 -43 137 -48 266 -110 405 -193 202 -122 345 -164 491
-144 4 1 19 13 32 27 31 34 32 87 4 164 -11 30 -23 64 -26 76 -2 12 -22 44
-44 73 -22 29 -36 57 -33 63 4 7 3 8 -4 4 -6 -4 -33 9 -59 27 -80 57 -123 75
-318 136 -49 16 -125 45 -168 66 -43 20 -136 54 -205 77 -207 65 -308 108
-410 175 -73 48 -105 63 -132 63 -20 0 -41 -5 -47 -11z"/>
<path d="M3331 7723 c-10 -26 -10 -27 4 -9 8 11 15 23 15 28 0 15 -7 8 -19
-19z"/>
<path d="M2835 6259 c-10 -15 3 -25 16 -12 7 7 7 13 1 17 -6 3 -14 1 -17 -5z"/>
<path d="M3220 4495 c0 -5 5 -17 10 -25 5 -8 10 -10 10 -5 0 6 -5 17 -10 25
-5 8 -10 11 -10 5z"/>
</g>
</svg>
